# Blender v2.80 (sub 75) OBJ File: ''
# www.blender.org
mtllib axis.mtl
o Text.002
v 0.450000 -0.000000 -1.594000
v 0.016000 -0.000000 -1.000000
v 0.631000 -0.000000 -1.000000
v 0.631000 -0.000000 -1.088000
v 0.197000 -0.000000 -1.088000
v 0.631000 -0.000000 -1.682000
v 0.043000 -0.000000 -1.682000
v 0.043000 -0.000000 -1.594000
v 1.687000 -0.000000 -0.682000
v 1.569000 -0.000000 -0.682000
v 1.356000 -0.000000 -0.422000
v 1.142000 -0.000000 -0.682000
v 1.023000 -0.000000 -0.682000
v 1.296000 -0.000000 -0.353000
v 1.002000 -0.000000 0.000000
v 1.121000 -0.000000 0.000000
v 1.356000 -0.000000 -0.282000
v 1.588000 -0.000000 0.000000
v 1.706000 -0.000000 0.000000
v 1.415000 -0.000000 -0.353000
v 0.301000 1.447000 -0.100000
v 0.118000 1.682000 -0.100000
v 0.000000 1.682000 -0.100000
v 0.253000 1.361000 -0.100000
v 0.253000 1.000000 -0.100000
v 0.351000 1.000000 -0.100000
v 0.351000 1.360000 -0.100000
v 0.604000 1.682000 -0.100000
v 0.486000 1.682000 -0.100000
v 0.450000 0.100000 -1.594000
v 0.016000 0.100000 -1.000000
v 0.631000 0.100000 -1.000000
v 0.631000 0.100000 -1.088000
v 0.197000 0.100000 -1.088000
v 0.631000 0.100000 -1.682000
v 0.043000 0.100000 -1.682000
v 0.043000 0.100000 -1.594000
v 0.301000 1.447000 0.000000
v 0.118000 1.682000 0.000000
v 0.000000 1.682000 0.000000
v 0.253000 1.361000 0.000000
v 0.253000 1.000000 0.000000
v 0.351000 1.000000 0.000000
v 0.351000 1.360000 0.000000
v 0.604000 1.682000 0.000000
v 0.486000 1.682000 0.000000
v 1.687000 0.100000 -0.682000
v 1.569000 0.100000 -0.682000
v 1.356000 0.100000 -0.422000
v 1.142000 0.100000 -0.682000
v 1.023000 0.100000 -0.682000
v 1.296000 0.100000 -0.353000
v 1.002000 0.100000 0.000000
v 1.121000 0.100000 0.000000
v 1.356000 0.100000 -0.282000
v 1.588000 0.100000 0.000000
v 1.706000 0.100000 0.000000
v 1.415000 0.100000 -0.353000
vn 0.0000 -1.0000 0.0000
vn 0.0000 0.0000 -1.0000
vn 0.0000 1.0000 0.0000
vn 0.8074 0.0000 0.5899
vn 0.0000 0.0000 1.0000
vn -1.0000 0.0000 0.0000
vn -0.8074 0.0000 -0.5899
vn 1.0000 0.0000 0.0000
vn -0.7857 0.6186 0.0000
vn 0.7863 -0.6178 0.0000
vn -0.7854 -0.6190 0.0000
vn 0.7890 0.6144 0.0000
vn -0.7736 0.0000 -0.6337
vn -0.7722 0.0000 0.6353
vn 0.7707 0.0000 0.6372
vn 0.7716 0.0000 -0.6361
vn -0.7696 0.0000 0.6386
vn 0.7721 0.0000 -0.6355
vn -0.7684 0.0000 -0.6400
vn 0.7682 0.0000 0.6402
usemtl None
s off
f 8//1 7//1 6//1
f 8//1 6//1 1//1
f 1//1 6//1 5//1
f 2//1 1//1 5//1
f 2//1 5//1 4//1
f 2//1 4//1 3//1
f 14//1 13//1 12//1
f 14//1 12//1 11//1
f 11//1 10//1 9//1
f 11//1 9//1 20//1
f 14//1 11//1 20//1
f 15//1 14//1 20//1
f 15//1 20//1 17//1
f 17//1 20//1 19//1
f 15//1 17//1 16//1
f 18//1 17//1 19//1
f 24//2 23//2 22//2
f 24//2 22//2 21//2
f 21//2 29//2 28//2
f 21//2 28//2 27//2
f 24//2 21//2 27//2
f 25//2 24//2 27//2
f 25//2 27//2 26//2
f 37//3 35//3 36//3
f 37//3 30//3 35//3
f 30//3 34//3 35//3
f 31//3 34//3 30//3
f 31//3 33//3 34//3
f 31//3 32//3 33//3
f 6//4 34//4 5//4
f 7//2 35//2 6//2
f 3//5 31//5 2//5
f 8//6 36//6 7//6
f 2//7 30//7 1//7
f 1//5 37//5 8//5
f 4//8 32//8 3//8
f 5//2 33//2 4//2
f 41//5 39//5 40//5
f 41//5 38//5 39//5
f 38//5 45//5 46//5
f 38//5 44//5 45//5
f 41//5 44//5 38//5
f 42//5 44//5 41//5
f 42//5 43//5 44//5
f 25//6 41//6 24//6
f 29//9 38//9 46//9
f 23//3 39//3 22//3
f 28//10 44//10 27//10
f 26//1 42//1 25//1
f 24//11 40//11 23//11
f 29//3 45//3 28//3
f 27//8 43//8 26//8
f 22//12 38//12 21//12
f 52//3 50//3 51//3
f 52//3 49//3 50//3
f 49//3 47//3 48//3
f 49//3 58//3 47//3
f 52//3 58//3 49//3
f 53//3 58//3 52//3
f 53//3 55//3 58//3
f 55//3 57//3 58//3
f 53//3 54//3 55//3
f 56//3 57//3 55//3
f 11//13 48//13 10//13
f 18//14 55//14 17//14
f 13//2 50//2 12//2
f 9//15 58//15 20//15
f 20//16 57//16 19//16
f 19//5 56//5 18//5
f 16//5 53//5 15//5
f 14//17 51//17 13//17
f 10//2 47//2 9//2
f 12//18 49//18 11//18
f 15//19 52//19 14//19
f 17//20 54//20 16//20
f 6//4 35//4 34//4
f 7//2 36//2 35//2
f 3//5 32//5 31//5
f 8//6 37//6 36//6
f 2//7 31//7 30//7
f 1//5 30//5 37//5
f 4//8 33//8 32//8
f 5//2 34//2 33//2
f 25//6 42//6 41//6
f 29//9 21//9 38//9
f 23//3 40//3 39//3
f 28//10 45//10 44//10
f 26//1 43//1 42//1
f 24//11 41//11 40//11
f 29//3 46//3 45//3
f 27//8 44//8 43//8
f 22//12 39//12 38//12
f 11//13 49//13 48//13
f 18//14 56//14 55//14
f 13//2 51//2 50//2
f 9//15 47//15 58//15
f 20//16 58//16 57//16
f 19//5 57//5 56//5
f 16//5 54//5 53//5
f 14//17 52//17 51//17
f 10//2 48//2 47//2
f 12//18 50//18 49//18
f 15//19 53//19 52//19
f 17//20 55//20 54//20
