# Blender v2.80 (sub 75) OBJ File: ''
# www.blender.org
mtllib axisZForwardYUp.mtl
o Text.004
v -1.280000 -0.000000 0.352999
v -1.126000 -0.000000 0.681999
v -1.007000 -0.000000 0.681999
v -1.340000 -0.000000 0.421999
v -1.671000 0.000000 0.681999
v -1.553000 -0.000000 0.681999
v -1.399000 -0.000000 0.352999
v -0.986000 -0.000000 -0.000001
v -1.340000 -0.000000 0.281999
v -1.690000 0.000000 -0.000001
v -1.105000 -0.000000 -0.000001
v -1.572000 -0.000000 -0.000001
v -0.237000 -0.000000 1.360999
v -0.102000 -0.000000 1.682000
v 0.016000 -0.000000 1.682000
v -0.285000 -0.000000 1.447000
v -0.588000 -0.000000 1.682000
v -0.470000 -0.000000 1.682000
v -0.335000 -0.000000 1.360000
v -0.237000 -0.000000 1.000000
v -0.335000 -0.000000 1.000000
v -0.027000 1.594000 -0.000000
v -0.615000 1.682000 -0.000000
v -0.027000 1.682000 -0.000000
v -0.434000 1.594000 -0.000000
v -0.181000 1.088000 -0.000000
v 0.000000 1.000000 -0.000001
v -0.615000 1.088000 -0.000000
v -0.615000 1.000000 -0.000001
v -0.027000 1.594000 0.100000
v -0.615000 1.682000 0.100000
v -0.027000 1.682000 0.100000
v -0.434000 1.594000 0.100000
v -0.181000 1.088000 0.100000
v 0.000000 1.000000 0.100000
v -0.615000 1.088000 0.100000
v -0.615000 1.000000 0.100000
v -1.280000 0.100000 0.352999
v -1.126000 0.100000 0.681999
v -1.007000 0.100000 0.681999
v -1.340000 0.100000 0.421999
v -1.671000 0.100000 0.681999
v -1.553000 0.100000 0.681999
v -1.399000 0.100000 0.352999
v -0.986000 0.100000 -0.000001
v -1.340000 0.100000 0.281999
v -1.690000 0.100000 -0.000001
v -1.105000 0.100000 -0.000001
v -1.572000 0.100000 -0.000001
v -0.237000 0.100000 1.360999
v -0.102000 0.100000 1.682000
v 0.016000 0.100000 1.682000
v -0.285000 0.100000 1.447000
v -0.588000 0.100000 1.682000
v -0.470000 0.100000 1.682000
v -0.335000 0.100000 1.360000
v -0.237000 0.100000 0.999999
v -0.335000 0.100000 0.999999
vn 0.4707 -0.8823 0.0004
vn 0.7563 -0.5494 0.3552
vn -0.3341 -0.6225 0.7077
vn 0.0004 -0.9265 0.3763
vn 0.3350 -0.6223 0.7075
vn -0.7559 -0.5495 0.3559
vn -0.4723 -0.8815 -0.0003
vn 0.7566 -0.5494 -0.3545
vn 0.0012 -0.9256 -0.3785
vn -0.7557 -0.5495 -0.3564
vn -0.3318 -0.6229 -0.7084
vn 0.3342 -0.6224 -0.7077
vn 0.5808 -0.7888 -0.2014
vn 0.7513 -0.5501 0.3645
vn -0.3444 -0.6203 0.7047
vn -0.0010 -0.9314 0.3641
vn 0.3424 -0.6208 0.7053
vn -0.7510 -0.5502 0.3650
vn -0.5811 -0.7886 -0.2010
vn 0.5774 -0.5774 -0.5773
vn -0.5774 -0.5774 -0.5773
vn -0.5774 0.5774 0.5774
vn -0.5774 -0.5774 0.5774
vn 0.7439 -0.3778 0.5512
vn -0.2294 0.1165 0.9663
vn 0.2294 -0.1165 0.9663
vn -0.7439 0.3778 0.5512
vn 0.5774 -0.5774 0.5774
vn 0.5774 0.5774 0.5774
vn -0.5774 0.5774 -0.5774
vn 0.7439 -0.3778 -0.5512
vn -0.5774 -0.5774 -0.5774
vn -0.2294 0.1165 -0.9663
vn 0.2294 -0.1165 -0.9663
vn -0.7439 0.3778 -0.5512
vn 0.5774 -0.5774 -0.5774
vn 0.5774 0.5774 -0.5774
vn 0.4707 0.8823 0.0004
vn -0.3341 0.6225 0.7077
vn 0.7563 0.5494 0.3552
vn 0.0004 0.9265 0.3763
vn -0.7559 0.5495 0.3559
vn 0.3350 0.6223 0.7075
vn -0.4723 0.8815 -0.0003
vn 0.7566 0.5494 -0.3545
vn 0.0012 0.9256 -0.3785
vn -0.7557 0.5495 -0.3564
vn -0.3318 0.6229 -0.7084
vn 0.3342 0.6224 -0.7077
vn 0.5808 0.7888 -0.2014
vn -0.3444 0.6203 0.7047
vn 0.7513 0.5501 0.3645
vn -0.0010 0.9314 0.3641
vn -0.7510 0.5502 0.3650
vn 0.3424 0.6208 0.7053
vn -0.5811 0.7886 -0.2010
vn 0.5774 0.5773 -0.5774
vn -0.5774 0.5773 -0.5774
usemtl None.001
s 1
f 1//1 3//2 2//3
f 1//1 2//3 4//4
f 4//4 6//5 5//6
f 4//4 5//6 7//7
f 1//1 4//4 7//7
f 8//8 1//1 7//7
f 8//8 7//7 9//9
f 9//9 7//7 10//10
f 8//8 9//9 11//11
f 12//12 9//9 10//10
f 13//13 15//14 14//15
f 13//13 14//15 16//16
f 16//16 18//17 17//18
f 16//16 17//18 19//19
f 13//13 16//16 19//19
f 20//20 13//13 19//19
f 20//20 19//19 21//21
f 22//22 24//23 23//24
f 22//22 23//24 25//25
f 25//25 23//24 26//26
f 27//27 25//25 26//26
f 27//27 26//26 28//28
f 27//27 28//28 29//29
f 30//30 31//31 32//32
f 30//30 33//33 31//31
f 33//33 34//34 31//31
f 35//35 34//34 33//33
f 35//35 36//36 34//34
f 35//35 37//37 36//36
f 23//24 34//34 26//26
f 24//23 31//31 23//24
f 29//29 35//35 27//27
f 22//22 32//32 24//23
f 27//27 33//33 25//25
f 25//25 30//30 22//22
f 28//28 37//37 29//29
f 26//26 36//36 28//28
f 38//38 39//39 40//40
f 38//38 41//41 39//39
f 41//41 42//42 43//43
f 41//41 44//44 42//42
f 38//38 44//44 41//41
f 45//45 44//44 38//38
f 45//45 46//46 44//44
f 46//46 47//47 44//44
f 45//45 48//48 46//46
f 49//49 47//47 46//46
f 9//9 49//49 46//46
f 3//2 39//39 2//3
f 7//7 42//42 44//44
f 7//7 47//47 10//10
f 10//10 49//49 12//12
f 8//8 48//48 45//45
f 3//2 38//38 40//40
f 6//5 42//42 5//6
f 2//3 41//41 4//4
f 8//8 38//38 1//1
f 11//11 46//46 48//48
f 4//4 43//43 6//5
f 50//50 51//51 52//52
f 50//50 53//53 51//51
f 53//53 54//54 55//55
f 53//53 56//56 54//54
f 50//50 56//56 53//53
f 57//57 56//56 50//50
f 57//57 58//58 56//56
f 16//16 55//55 18//17
f 15//14 51//51 14//15
f 17//18 56//56 19//19
f 21//21 57//57 20//20
f 13//13 52//52 15//14
f 17//18 55//55 54//54
f 21//21 56//56 58//58
f 14//15 53//53 16//16
f 20//20 50//50 13//13
f 23//24 31//31 34//34
f 24//23 32//32 31//31
f 29//29 37//37 35//35
f 22//22 30//30 32//32
f 27//27 35//35 33//33
f 25//25 33//33 30//30
f 28//28 36//36 37//37
f 26//26 34//34 36//36
f 9//9 12//12 49//49
f 3//2 40//40 39//39
f 7//7 5//6 42//42
f 7//7 44//44 47//47
f 10//10 47//47 49//49
f 8//8 11//11 48//48
f 3//2 1//1 38//38
f 6//5 43//43 42//42
f 2//3 39//39 41//41
f 8//8 45//45 38//38
f 11//11 9//9 46//46
f 4//4 41//41 43//43
f 16//16 53//53 55//55
f 15//14 52//52 51//51
f 17//18 54//54 56//56
f 21//21 58//58 57//57
f 13//13 50//50 52//52
f 17//18 18//17 55//55
f 21//21 19//19 56//56
f 14//15 51//51 53//53
f 20//20 57//57 50//50
