# Blender v2.80 (sub 75) OBJ File: 'baton.blend'
# www.blender.org
mtllib baton.mtl
o baton_Cylinder
v 0.000000 -0.500000 0.500000
v 0.000000 0.500000 0.500000
v -0.062791 -0.500000 0.496057
v -0.062791 0.500000 0.496057
v -0.124591 -0.500000 0.484292
v -0.124591 0.500000 0.484292
v -0.184426 -0.500000 0.464888
v -0.184426 0.500000 0.464888
v -0.241353 -0.500000 0.438153
v -0.241353 0.500000 0.438153
v -0.294474 -0.500000 0.404509
v -0.294474 0.500000 0.404509
v -0.342950 -0.500000 0.364484
v -0.342950 0.500000 0.364484
v -0.386018 -0.500000 0.318712
v -0.386018 0.500000 0.318712
v -0.422999 -0.500000 0.267913
v -0.422999 0.500000 0.267913
v -0.453308 -0.500000 0.212890
v -0.453308 0.500000 0.212890
v -0.476469 -0.500000 0.154508
v -0.476469 0.500000 0.154508
v -0.492115 -0.500000 0.093691
v -0.492115 0.500000 0.093691
v -0.500000 -0.500000 0.031395
v -0.500000 0.500000 0.031395
v -0.500000 -0.500000 -0.031395
v -0.500000 0.500000 -0.031395
v -0.492115 -0.500000 -0.093691
v -0.492115 0.500000 -0.093691
v -0.476468 -0.500000 -0.154509
v -0.476468 0.500000 -0.154509
v -0.453308 -0.500000 -0.212890
v -0.453308 0.500000 -0.212890
v -0.422999 -0.500000 -0.267914
v -0.422999 0.500000 -0.267914
v -0.386018 -0.500000 -0.318712
v -0.386018 0.500000 -0.318712
v -0.342950 -0.500000 -0.364485
v -0.342950 0.500000 -0.364485
v -0.294473 -0.500000 -0.404509
v -0.294473 0.500000 -0.404509
v -0.241353 -0.500000 -0.438153
v -0.241353 0.500000 -0.438153
v -0.184426 -0.500000 -0.464888
v -0.184426 0.500000 -0.464888
v -0.124590 -0.500000 -0.484292
v -0.124590 0.500000 -0.484292
v -0.062790 -0.500000 -0.496057
v -0.062790 0.500000 -0.496057
v 0.000000 -0.500000 -0.500000
v 0.000000 0.500000 -0.500000
v 0.062791 -0.500000 -0.496057
v 0.062791 0.500000 -0.496057
v 0.124591 -0.500000 -0.484291
v 0.124591 0.500000 -0.484291
v 0.184427 -0.500000 -0.464888
v 0.184427 0.500000 -0.464888
v 0.241354 -0.500000 -0.438153
v 0.241354 0.500000 -0.438153
v 0.294474 -0.500000 -0.404508
v 0.294474 0.500000 -0.404508
v 0.342951 -0.500000 -0.364484
v 0.342951 0.500000 -0.364484
v 0.386019 -0.500000 -0.318712
v 0.386019 0.500000 -0.318712
v 0.422999 -0.500000 -0.267913
v 0.422999 0.500000 -0.267913
v 0.453308 -0.500000 -0.212889
v 0.453308 0.500000 -0.212889
v 0.476469 -0.500000 -0.154508
v 0.476469 0.500000 -0.154508
v 0.492115 -0.500000 -0.093690
v 0.492115 0.500000 -0.093690
v 0.500000 -0.500000 -0.031395
v 0.500000 0.500000 -0.031395
v 0.500000 -0.500000 0.031396
v 0.500000 0.500000 0.031396
v 0.492115 -0.500000 0.093691
v 0.492115 0.500000 0.093691
v 0.476468 -0.500000 0.154509
v 0.476468 0.500000 0.154509
v 0.453308 -0.500000 0.212890
v 0.453308 0.500000 0.212890
v 0.422998 -0.500000 0.267914
v 0.422998 0.500000 0.267914
v 0.386018 -0.500000 0.318713
v 0.386018 0.500000 0.318713
v 0.342950 -0.500000 0.364485
v 0.342950 0.500000 0.364485
v 0.294473 -0.500000 0.404509
v 0.294473 0.500000 0.404509
v 0.241352 -0.500000 0.438154
v 0.241352 0.500000 0.438154
v 0.184425 -0.500000 0.464889
v 0.184425 0.500000 0.464889
v 0.124590 -0.500000 0.484292
v 0.124590 0.500000 0.484292
v 0.062790 -0.500000 0.496057
v 0.062790 0.500000 0.496057
vt 1.000000 1.000000
vt 0.980000 0.500000
vt 1.000000 0.500000
vt 0.980000 1.000000
vt 0.960000 0.500000
vt 0.960000 1.000000
vt 0.940000 0.500000
vt 0.940000 1.000000
vt 0.920000 0.500000
vt 0.920000 1.000000
vt 0.900000 0.500000
vt 0.900000 1.000000
vt 0.880000 0.500000
vt 0.880000 1.000000
vt 0.860000 0.500000
vt 0.860000 1.000000
vt 0.840000 0.500000
vt 0.840000 1.000000
vt 0.820000 0.500000
vt 0.820000 1.000000
vt 0.800000 0.500000
vt 0.800000 1.000000
vt 0.780000 0.500000
vt 0.780000 1.000000
vt 0.760000 0.500000
vt 0.760000 1.000000
vt 0.740000 0.500000
vt 0.740000 1.000000
vt 0.720000 0.500000
vt 0.720000 1.000000
vt 0.700000 0.500000
vt 0.700000 1.000000
vt 0.680000 0.500000
vt 0.680000 1.000000
vt 0.660000 0.500000
vt 0.660000 1.000000
vt 0.640000 0.500000
vt 0.640000 1.000000
vt 0.620000 0.500000
vt 0.620000 1.000000
vt 0.600000 0.500000
vt 0.600000 1.000000
vt 0.580000 0.500000
vt 0.580000 1.000000
vt 0.560000 0.500000
vt 0.560000 1.000000
vt 0.540000 0.500000
vt 0.540000 1.000000
vt 0.520000 0.500000
vt 0.520000 1.000000
vt 0.500000 0.500000
vt 0.500000 1.000000
vt 0.480000 0.500000
vt 0.480000 1.000000
vt 0.460000 0.500000
vt 0.460000 1.000000
vt 0.440000 0.500000
vt 0.440000 1.000000
vt 0.420000 0.500000
vt 0.420000 1.000000
vt 0.400000 0.500000
vt 0.400000 1.000000
vt 0.380000 0.500000
vt 0.380000 1.000000
vt 0.360000 0.500000
vt 0.360000 1.000000
vt 0.340000 0.500000
vt 0.340000 1.000000
vt 0.320000 0.500000
vt 0.320000 1.000000
vt 0.300000 0.500000
vt 0.300000 1.000000
vt 0.280000 0.500000
vt 0.280000 1.000000
vt 0.260000 0.500000
vt 0.260000 1.000000
vt 0.240000 0.500000
vt 0.240000 1.000000
vt 0.220000 0.500000
vt 0.220000 1.000000
vt 0.200000 0.500000
vt 0.200000 1.000000
vt 0.180000 0.500000
vt 0.180000 1.000000
vt 0.160000 0.500000
vt 0.160000 1.000000
vt 0.140000 0.500000
vt 0.140000 1.000000
vt 0.120000 0.500000
vt 0.120000 1.000000
vt 0.100000 0.500000
vt 0.100000 1.000000
vt 0.080000 0.500000
vt 0.080000 1.000000
vt 0.060000 0.500000
vt 0.060000 1.000000
vt 0.040000 0.500000
vt 0.467158 0.147813
vt 0.452639 0.378598
vt 0.190315 0.482460
vt 0.040000 1.000000
vt 0.020000 0.500000
vt 0.020000 1.000000
vt 0.000000 0.500000
vt 0.521746 0.175836
vt 0.565077 0.402982
vt 0.838350 0.473146
vt 0.309686 0.482460
vt 0.280080 0.488108
vt 0.250000 0.490000
vt 0.219921 0.488108
vt 0.161651 0.473147
vt 0.134380 0.460314
vt 0.108932 0.444164
vt 0.085709 0.424953
vt 0.065077 0.402982
vt 0.021747 0.324164
vt 0.047362 0.378599
vt 0.032842 0.352187
vt 0.014251 0.294972
vt 0.010474 0.265070
vt 0.010474 0.234931
vt 0.014251 0.205029
vt 0.021746 0.175836
vt 0.065077 0.097018
vt 0.032841 0.147813
vt 0.047361 0.121402
vt 0.085708 0.075048
vt 0.161650 0.026854
vt 0.108931 0.055836
vt 0.134379 0.039687
vt 0.190314 0.017540
vt 0.219920 0.011892
vt 0.250000 0.010000
vt 0.280080 0.011892
vt 0.309685 0.017540
vt 0.391068 0.055836
vt 0.338350 0.026854
vt 0.365621 0.039686
vt 0.414291 0.075047
vt 0.434923 0.097018
vt 0.452639 0.121401
vt 0.478254 0.175836
vt 0.489526 0.265070
vt 0.485749 0.205028
vt 0.489526 0.234930
vt 0.485749 0.294971
vt 0.478254 0.324164
vt 0.467158 0.352187
vt 0.434923 0.402982
vt 0.414291 0.424952
vt 0.391068 0.444164
vt 0.365621 0.460314
vt 0.338350 0.473146
vt 0.000000 1.000000
vt 0.719921 0.488108
vt 0.750000 0.490000
vt 0.780080 0.488108
vt 0.809686 0.482460
vt 0.865621 0.460314
vt 0.934923 0.402982
vt 0.891068 0.444164
vt 0.914291 0.424952
vt 0.952639 0.378598
vt 0.985749 0.294971
vt 0.967158 0.352187
vt 0.978254 0.324164
vt 0.989526 0.265070
vt 0.978254 0.175836
vt 0.989526 0.234930
vt 0.985749 0.205028
vt 0.967158 0.147813
vt 0.952639 0.121401
vt 0.934923 0.097018
vt 0.914291 0.075047
vt 0.891068 0.055836
vt 0.865621 0.039686
vt 0.838350 0.026854
vt 0.809685 0.017540
vt 0.780080 0.011892
vt 0.750000 0.010000
vt 0.719920 0.011892
vt 0.690314 0.017540
vt 0.661650 0.026854
vt 0.634379 0.039687
vt 0.608931 0.055836
vt 0.585708 0.075048
vt 0.565077 0.097018
vt 0.547361 0.121402
vt 0.532841 0.147813
vt 0.514251 0.205029
vt 0.510474 0.234931
vt 0.510474 0.265070
vt 0.514251 0.294972
vt 0.521747 0.324164
vt 0.532842 0.352187
vt 0.547361 0.378599
vt 0.585709 0.424953
vt 0.608932 0.444164
vt 0.634380 0.460314
vt 0.661651 0.473147
vt 0.690315 0.482460
vn -0.0627 0.0000 0.9980
vn -0.1870 0.0000 0.9824
vn -0.3085 0.0000 0.9512
vn -0.4251 0.0000 0.9052
vn -0.5351 0.0000 0.8448
vn -0.6367 0.0000 0.7711
vn -0.7283 0.0000 0.6853
vn -0.8085 0.0000 0.5885
vn -0.8759 0.0000 0.4825
vn -0.9295 0.0000 0.3688
vn -0.9685 0.0000 0.2492
vn -0.9921 0.0000 0.1256
vn -1.0000 0.0000 0.0000
vn -0.9921 0.0000 -0.1256
vn -0.9685 0.0000 -0.2492
vn -0.9295 0.0000 -0.3688
vn -0.8759 0.0000 -0.4825
vn -0.8085 0.0000 -0.5885
vn -0.7283 0.0000 -0.6853
vn -0.6367 0.0000 -0.7711
vn -0.5351 0.0000 -0.8448
vn -0.4251 0.0000 -0.9052
vn -0.3085 0.0000 -0.9512
vn -0.1870 0.0000 -0.9824
vn -0.0627 0.0000 -0.9980
vn 0.0627 0.0000 -0.9980
vn 0.1870 0.0000 -0.9824
vn 0.3085 0.0000 -0.9512
vn 0.4251 0.0000 -0.9051
vn 0.5351 0.0000 -0.8448
vn 0.6367 0.0000 -0.7711
vn 0.7283 0.0000 -0.6853
vn 0.8085 0.0000 -0.5885
vn 0.8759 0.0000 -0.4825
vn 0.9295 0.0000 -0.3688
vn 0.9685 0.0000 -0.2492
vn 0.9921 0.0000 -0.1256
vn 1.0000 0.0000 0.0000
vn 0.9921 0.0000 0.1256
vn 0.9685 0.0000 0.2492
vn 0.9295 0.0000 0.3688
vn 0.8759 0.0000 0.4825
vn 0.8085 0.0000 0.5885
vn 0.7283 0.0000 0.6853
vn 0.6367 0.0000 0.7711
vn 0.5351 0.0000 0.8448
vn 0.4251 0.0000 0.9052
vn 0.3085 0.0000 0.9512
vn 0.0000 1.0000 0.0000
vn 0.1870 0.0000 0.9824
vn 0.0627 0.0000 0.9980
vn 0.0000 -1.0000 0.0000
vn 0.4251 0.0000 -0.9052
usemtl Material.001
s off
f 2/1/1 3/2/1 1/3/1
f 4/4/2 5/5/2 3/2/2
f 6/6/3 7/7/3 5/5/3
f 8/8/4 9/9/4 7/7/4
f 10/10/5 11/11/5 9/9/5
f 12/12/6 13/13/6 11/11/6
f 14/14/7 15/15/7 13/13/7
f 16/16/8 17/17/8 15/15/8
f 18/18/9 19/19/9 17/17/9
f 20/20/10 21/21/10 19/19/10
f 22/22/11 23/23/11 21/21/11
f 24/24/12 25/25/12 23/23/12
f 26/26/13 27/27/13 25/25/13
f 28/28/14 29/29/14 27/27/14
f 30/30/15 31/31/15 29/29/15
f 32/32/16 33/33/16 31/31/16
f 34/34/17 35/35/17 33/33/17
f 36/36/18 37/37/18 35/35/18
f 38/38/19 39/39/19 37/37/19
f 40/40/20 41/41/20 39/39/20
f 42/42/21 43/43/21 41/41/21
f 44/44/22 45/45/22 43/43/22
f 46/46/23 47/47/23 45/45/23
f 48/48/24 49/49/24 47/47/24
f 50/50/25 51/51/25 49/49/25
f 52/52/26 53/53/26 51/51/26
f 54/54/27 55/55/27 53/53/27
f 56/56/28 57/57/28 55/55/28
f 58/58/29 59/59/29 57/57/29
f 60/60/30 61/61/30 59/59/30
f 62/62/31 63/63/31 61/61/31
f 64/64/32 65/65/32 63/63/32
f 66/66/33 67/67/33 65/65/33
f 68/68/34 69/69/34 67/67/34
f 70/70/35 71/71/35 69/69/35
f 72/72/36 73/73/36 71/71/36
f 74/74/37 75/75/37 73/73/37
f 76/76/38 77/77/38 75/75/38
f 78/78/39 79/79/39 77/77/39
f 80/80/40 81/81/40 79/79/40
f 82/82/41 83/83/41 81/81/41
f 84/84/42 85/85/42 83/83/42
f 86/86/43 87/87/43 85/85/43
f 88/88/44 89/89/44 87/87/44
f 90/90/45 91/91/45 89/89/45
f 92/92/46 93/93/46 91/91/46
f 94/94/47 95/95/47 93/93/47
f 96/96/48 97/97/48 95/95/48
f 34/98/49 18/99/49 98/100/49
f 98/101/50 99/102/50 97/97/50
f 100/103/51 1/104/51 99/102/51
f 71/105/52 87/106/52 7/107/52
f 2/1/1 4/4/1 3/2/1
f 4/4/2 6/6/2 5/5/2
f 6/6/3 8/8/3 7/7/3
f 8/8/4 10/10/4 9/9/4
f 10/10/5 12/12/5 11/11/5
f 12/12/6 14/14/6 13/13/6
f 14/14/7 16/16/7 15/15/7
f 16/16/8 18/18/8 17/17/8
f 18/18/9 20/20/9 19/19/9
f 20/20/10 22/22/10 21/21/10
f 22/22/11 24/24/11 23/23/11
f 24/24/12 26/26/12 25/25/12
f 26/26/13 28/28/13 27/27/13
f 28/28/14 30/30/14 29/29/14
f 30/30/15 32/32/15 31/31/15
f 32/32/16 34/34/16 33/33/16
f 34/34/17 36/36/17 35/35/17
f 36/36/18 38/38/18 37/37/18
f 38/38/19 40/40/19 39/39/19
f 40/40/20 42/42/20 41/41/20
f 42/42/21 44/44/21 43/43/21
f 44/44/22 46/46/22 45/45/22
f 46/46/23 48/48/23 47/47/23
f 48/48/24 50/50/24 49/49/24
f 50/50/25 52/52/25 51/51/25
f 52/52/26 54/54/26 53/53/26
f 54/54/27 56/56/27 55/55/27
f 56/56/28 58/58/28 57/57/28
f 58/58/53 60/60/53 59/59/53
f 60/60/30 62/62/30 61/61/30
f 62/62/31 64/64/31 63/63/31
f 64/64/32 66/66/32 65/65/32
f 66/66/33 68/68/33 67/67/33
f 68/68/34 70/70/34 69/69/34
f 70/70/35 72/72/35 71/71/35
f 72/72/36 74/74/36 73/73/36
f 74/74/37 76/76/37 75/75/37
f 76/76/38 78/78/38 77/77/38
f 78/78/39 80/80/39 79/79/39
f 80/80/40 82/82/40 81/81/40
f 82/82/41 84/84/41 83/83/41
f 84/84/42 86/86/42 85/85/42
f 86/86/43 88/88/43 87/87/43
f 88/88/44 90/90/44 89/89/44
f 90/90/45 92/92/45 91/91/45
f 92/92/46 94/94/46 93/93/46
f 94/94/47 96/96/47 95/95/47
f 96/96/48 98/101/48 97/97/48
f 6/108/49 4/109/49 2/110/49
f 2/110/49 100/111/49 98/100/49
f 98/100/49 96/112/49 94/113/49
f 94/113/49 92/114/49 98/100/49
f 92/114/49 90/115/49 98/100/49
f 90/115/49 88/116/49 82/117/49
f 88/116/49 86/118/49 82/117/49
f 86/118/49 84/119/49 82/117/49
f 82/117/49 80/120/49 78/121/49
f 78/121/49 76/122/49 82/117/49
f 76/122/49 74/123/49 82/117/49
f 74/123/49 72/124/49 66/125/49
f 72/124/49 70/126/49 66/125/49
f 70/126/49 68/127/49 66/125/49
f 66/125/49 64/128/49 58/129/49
f 64/128/49 62/130/49 58/129/49
f 62/130/49 60/131/49 58/129/49
f 58/129/49 56/132/49 54/133/49
f 54/133/49 52/134/49 58/129/49
f 52/134/49 50/135/49 58/129/49
f 50/135/49 48/136/49 42/137/49
f 48/136/49 46/138/49 42/137/49
f 46/138/49 44/139/49 42/137/49
f 42/137/49 40/140/49 38/141/49
f 38/141/49 36/142/49 42/137/49
f 36/142/49 34/98/49 42/137/49
f 34/98/49 32/143/49 26/144/49
f 32/143/49 30/145/49 26/144/49
f 30/145/49 28/146/49 26/144/49
f 26/144/49 24/147/49 22/148/49
f 22/148/49 20/149/49 18/99/49
f 18/99/49 16/150/49 14/151/49
f 14/151/49 12/152/49 18/99/49
f 12/152/49 10/153/49 18/99/49
f 10/153/49 8/154/49 6/108/49
f 6/108/49 2/110/49 10/153/49
f 2/110/49 98/100/49 10/153/49
f 26/144/49 22/148/49 18/99/49
f 98/100/49 90/115/49 82/117/49
f 82/117/49 74/123/49 98/100/49
f 74/123/49 66/125/49 98/100/49
f 66/125/49 58/129/49 50/135/49
f 50/135/49 42/137/49 34/98/49
f 34/98/49 26/144/49 18/99/49
f 18/99/49 10/153/49 98/100/49
f 66/125/49 50/135/49 98/100/49
f 50/135/49 34/98/49 98/100/49
f 98/101/50 100/103/50 99/102/50
f 100/103/51 2/155/51 1/104/51
f 99/156/52 1/157/52 7/107/52
f 1/157/52 3/158/52 7/107/52
f 3/158/52 5/159/52 7/107/52
f 7/107/52 9/160/52 15/161/52
f 9/160/52 11/162/52 15/161/52
f 11/162/52 13/163/52 15/161/52
f 15/161/52 17/164/52 23/165/52
f 17/164/52 19/166/52 23/165/52
f 19/166/52 21/167/52 23/165/52
f 23/165/52 25/168/52 31/169/52
f 25/168/52 27/170/52 31/169/52
f 27/170/52 29/171/52 31/169/52
f 31/169/52 33/172/52 35/173/52
f 35/173/52 37/174/52 39/175/52
f 39/175/52 41/176/52 43/177/52
f 43/177/52 45/178/52 47/179/52
f 47/179/52 49/180/52 51/181/52
f 51/181/52 53/182/52 55/183/52
f 55/183/52 57/184/52 59/185/52
f 59/185/52 61/186/52 63/187/52
f 63/187/52 65/188/52 67/189/52
f 67/189/52 69/190/52 71/105/52
f 71/105/52 73/191/52 75/192/52
f 75/192/52 77/193/52 79/194/52
f 79/194/52 81/195/52 83/196/52
f 83/196/52 85/197/52 87/106/52
f 87/106/52 89/198/52 91/199/52
f 91/199/52 93/200/52 95/201/52
f 95/201/52 97/202/52 99/156/52
f 31/169/52 35/173/52 39/175/52
f 39/175/52 43/177/52 55/183/52
f 43/177/52 47/179/52 55/183/52
f 47/179/52 51/181/52 55/183/52
f 55/183/52 59/185/52 71/105/52
f 59/185/52 63/187/52 71/105/52
f 63/187/52 67/189/52 71/105/52
f 71/105/52 75/192/52 79/194/52
f 79/194/52 83/196/52 71/105/52
f 83/196/52 87/106/52 71/105/52
f 87/106/52 91/199/52 7/107/52
f 91/199/52 95/201/52 7/107/52
f 95/201/52 99/156/52 7/107/52
f 7/107/52 15/161/52 23/165/52
f 23/165/52 31/169/52 7/107/52
f 31/169/52 39/175/52 7/107/52
f 39/175/52 55/183/52 7/107/52
f 55/183/52 71/105/52 7/107/52
