# Blender v2.80 (sub 75) OBJ File: 'hitBoxIgloo.blend'
# www.blender.org
mtllib hitBoxIgloo.mtl
o hitBoxIgloo
v 0.000000 0.304186 0.329749
v 0.000000 -0.510372 0.696450
v -0.415210 0.266988 0.250720
v -0.603144 -0.510372 0.348225
v -0.426487 0.382499 -0.246233
v -0.603144 -0.510372 -0.348225
v 0.006000 0.404248 -0.500337
v 0.000000 -0.510372 -0.696450
v 0.000000 0.502082 -0.000000
v 0.426487 0.382499 -0.246232
v 0.603144 -0.510372 -0.348225
v 0.426487 0.293090 0.246233
v 0.603144 -0.510372 0.348225
vt 0.666667 0.750000
vt 0.583333 1.000000
vt 0.500000 0.750000
vt 0.666667 0.500000
vt 0.500000 0.500000
vt 0.416667 1.000000
vt 0.333333 0.750000
vt 0.333333 0.500000
vt 0.250000 1.000000
vt 0.166667 0.750000
vt 0.166667 0.500000
vt 0.083333 1.000000
vt 0.000000 0.750000
vt 0.000000 0.500000
vt 1.000000 0.750000
vt 0.916667 1.000000
vt 0.833333 0.750000
vt 1.000000 0.500000
vt 0.833333 0.500000
vt 0.750000 1.000000
vn -0.1722 0.8446 0.5069
vn -0.4873 0.2237 0.8441
vn -0.3780 0.8998 0.2177
vn -0.9720 0.2350 0.0000
vn -0.1611 0.9682 -0.1913
vn -0.4905 0.1941 -0.8496
vn 0.1634 0.9686 -0.1874
vn 0.4905 0.1941 -0.8496
vn 0.3544 0.9200 0.1670
vn 0.9767 0.2147 0.0000
vn 0.4883 0.2147 0.8458
vn 0.1222 0.8510 0.5107
vn 0.0000 -1.0000 0.0000
vn -0.2058 0.4017 0.8923
vn -0.9803 0.1865 0.0656
vn -0.5048 0.1841 -0.8434
vn 0.5158 0.1764 -0.8384
vn 0.9811 0.1902 0.0345
vn 0.1859 0.4033 0.8960
usemtl None
s off
f 1/1/1 9/2/1 3/3/1
f 2/4/2 3/3/2 4/5/2
f 3/3/3 9/6/3 5/7/3
f 3/3/4 6/8/4 4/5/4
f 5/7/5 9/9/5 7/10/5
f 5/7/6 8/11/6 6/8/6
f 7/10/7 9/12/7 10/13/7
f 8/11/8 10/13/8 11/14/8
f 10/15/9 9/16/9 12/17/9
f 11/18/10 12/17/10 13/19/10
f 12/17/11 2/4/11 13/19/11
f 12/17/12 9/20/12 1/1/12
f 4/5/13 8/11/13 13/19/13
f 2/4/14 1/1/14 3/3/14
f 3/3/15 5/7/15 6/8/15
f 5/7/16 7/10/16 8/11/16
f 8/11/17 7/10/17 10/13/17
f 11/18/18 10/15/18 12/17/18
f 12/17/19 1/1/19 2/4/19
f 13/19/13 2/4/13 4/5/13
f 4/5/13 6/8/13 8/11/13
f 8/11/13 11/18/13 13/19/13
