# Blender v2.80 (sub 75) OBJ File: 'hitBoxTriggerTeleporteur.blend'
# www.blender.org
mtllib hitBoxTriggerTeleporteur.mtl
o hitBoxTriggerTeleporteur
v 0.038702 0.085940 0.210397
v 0.038702 -0.245488 0.306229
v -0.161659 0.085940 0.094719
v -0.244652 -0.245488 0.142634
v -0.161659 0.085940 -0.136639
v -0.244652 -0.245488 -0.184555
v 0.038702 0.085940 -0.252318
v 0.038702 -0.245488 -0.348150
v 0.038702 0.223222 -0.020960
v 0.239064 0.085940 -0.136639
v 0.322057 -0.245488 -0.184555
v 0.239064 0.085940 0.094719
v 0.322057 -0.245488 0.142634
vt 0.666667 0.750000
vt 0.583333 1.000000
vt 0.500000 0.750000
vt 0.500000 0.500000
vt 0.666667 0.500000
vt 0.416667 1.000000
vt 0.333333 0.750000
vt 0.333333 0.500000
vt 0.250000 1.000000
vt 0.166667 0.750000
vt 0.166667 0.500000
vt 0.083333 1.000000
vt 0.000000 0.750000
vt 0.000000 0.500000
vt 1.000000 0.500000
vt 0.833333 0.750000
vt 0.833333 0.500000
vt 1.000000 0.750000
vt 0.916667 1.000000
vt 0.750000 1.000000
vn -0.2826 0.8249 0.4895
vn -0.4850 0.2429 0.8401
vn -0.5652 0.8249 -0.0000
vn -0.9700 0.2429 0.0000
vn -0.2826 0.8249 -0.4895
vn -0.4850 0.2429 -0.8401
vn 0.2826 0.8249 -0.4895
vn 0.4850 0.2429 -0.8401
vn 0.9700 0.2429 0.0000
vn 0.5652 0.8249 0.0000
vn 0.4850 0.2429 0.8401
vn 0.0000 -1.0000 0.0000
vn 0.2826 0.8249 0.4895
usemtl None
s off
f 1/1/1 9/2/1 3/3/1
f 1/1/2 4/4/2 2/5/2
f 3/3/3 9/6/3 5/7/3
f 3/3/4 6/8/4 4/4/4
f 5/7/5 9/9/5 7/10/5
f 5/7/6 8/11/6 6/8/6
f 7/10/7 9/12/7 10/13/7
f 8/11/8 10/13/8 11/14/8
f 11/15/9 12/16/9 13/17/9
f 10/18/10 9/19/10 12/16/10
f 12/16/11 2/5/11 13/17/11
f 4/4/12 8/11/12 13/17/12
f 12/16/13 9/20/13 1/1/13
f 1/1/2 3/3/2 4/4/2
f 3/3/4 5/7/4 6/8/4
f 5/7/6 7/10/6 8/11/6
f 8/11/8 7/10/8 10/13/8
f 11/15/9 10/18/9 12/16/9
f 12/16/11 1/1/11 2/5/11
f 13/17/12 2/5/12 4/4/12
f 4/4/12 6/8/12 8/11/12
f 8/11/12 11/15/12 13/17/12
