# Blender v2.80 (sub 75) OBJ File: 'hitBoxChampi3.blend'
# www.blender.org
mtllib hitBoxChampi3.mtl
o hitBoxChampi3
v 0.170190 -0.502198 -0.166435
v 0.170190 0.128880 -0.166435
v 0.170190 -0.502198 0.077953
v 0.170190 0.128880 0.077953
v -0.165861 -0.502198 -0.166435
v -0.165861 0.128880 -0.166435
v -0.165861 -0.502198 0.077953
v -0.165861 0.128880 0.077953
v 0.468292 -0.060734 -0.369536
v 0.045600 0.875851 -0.107401
v 0.468292 -0.060734 0.268607
v 0.045600 0.875851 0.006472
v -0.468292 -0.060734 -0.369536
v -0.045600 0.875851 -0.107401
v -0.468292 -0.060734 0.268607
v -0.045600 0.875851 0.006472
vt 0.625000 0.000000
vt 0.375000 0.250000
vt 0.375000 0.000000
vt 0.625000 0.250000
vt 0.375000 0.500000
vt 0.625000 0.500000
vt 0.375000 0.750000
vt 0.625000 0.750000
vt 0.375000 1.000000
vt 0.125000 0.750000
vt 0.125000 0.500000
vt 0.875000 0.500000
vt 0.625000 0.000000
vt 0.375000 0.250000
vt 0.375000 0.000000
vt 0.625000 0.500000
vt 0.375000 0.500000
vt 0.625000 0.750000
vt 0.375000 0.750000
vt 0.625000 1.000000
vt 0.375000 1.000000
vt 0.125000 0.750000
vt 0.125000 0.500000
vt 0.875000 0.500000
vt 0.625000 1.000000
vt 0.875000 0.750000
vt 0.625000 0.250000
vt 0.875000 0.750000
vn 1.0000 0.0000 0.0000
vn 0.0000 0.0000 1.0000
vn -1.0000 0.0000 0.0000
vn 0.0000 0.0000 -1.0000
vn 0.0000 -1.0000 0.0000
vn 0.0000 1.0000 0.0000
vn 0.9115 0.4114 0.0000
vn 0.0000 0.2695 0.9630
vn -0.9115 0.4114 0.0000
vn 0.0000 0.2695 -0.9630
usemtl None
s off
f 2/1/1 3/2/1 1/3/1
f 4/4/2 7/5/2 3/2/2
f 8/6/3 5/7/3 7/5/3
f 6/8/4 1/9/4 5/7/4
f 7/5/5 1/10/5 3/11/5
f 4/12/6 6/8/6 8/6/6
f 10/13/7 11/14/7 9/15/7
f 11/14/8 16/16/8 15/17/8
f 15/17/9 14/18/9 13/19/9
f 13/19/10 10/20/10 9/21/10
f 15/17/5 9/22/5 11/23/5
f 12/24/6 14/18/6 16/16/6
f 2/1/1 4/4/1 3/2/1
f 4/4/2 8/6/2 7/5/2
f 8/6/3 6/8/3 5/7/3
f 6/8/4 2/25/4 1/9/4
f 7/5/5 5/7/5 1/10/5
f 4/12/6 2/26/6 6/8/6
f 10/13/7 12/27/7 11/14/7
f 11/14/8 12/27/8 16/16/8
f 15/17/9 16/16/9 14/18/9
f 13/19/10 14/18/10 10/20/10
f 15/17/5 13/19/5 9/22/5
f 12/24/6 10/28/6 14/18/6
