# Blender v2.80 (sub 75) OBJ File: 'hitBoxPlante1.blend'
# www.blender.org
mtllib hitBoxPlante1.mtl
o hitBoxPlante1_Cube.013
v 0.366089 -0.194306 -0.037448
v 0.366089 0.516960 -0.037448
v 0.366089 -0.194306 0.089255
v 0.366089 0.516960 0.089255
v -0.474559 -0.194306 -0.037448
v -0.474559 0.516960 -0.037448
v -0.474559 -0.194306 0.089255
v -0.474559 0.516960 0.089255
v 0.501310 -0.505915 -0.461546
v 0.387463 -0.130592 -0.295674
v 0.501310 -0.505915 0.459845
v 0.408153 -0.130592 0.286912
v -0.088572 -0.505915 -0.376611
v 0.010977 -0.130592 -0.241911
v -0.088572 -0.505915 0.503380
v 0.022942 -0.130592 0.364579
vt 0.625000 0.000000
vt 0.375000 0.250000
vt 0.375000 0.000000
vt 0.625000 0.250000
vt 0.375000 0.500000
vt 0.625000 0.500000
vt 0.375000 0.750000
vt 0.625000 0.750000
vt 0.375000 1.000000
vt 0.125000 0.750000
vt 0.125000 0.500000
vt 0.875000 0.500000
vt 0.375000 0.000000
vt 0.625000 0.250000
vt 0.375000 0.250000
vt 0.625000 0.500000
vt 0.375000 0.500000
vt 0.375000 0.750000
vt 0.625000 1.000000
vt 0.375000 1.000000
vt 0.125000 0.500000
vt 0.125000 0.750000
vt 0.875000 0.500000
vt 0.625000 0.750000
vt 0.625000 1.000000
vt 0.875000 0.750000
vt 0.625000 0.000000
vt 0.875000 0.750000
vn 1.0000 0.0000 0.0000
vn 0.0000 0.0000 1.0000
vn -1.0000 0.0000 0.0000
vn 0.0000 0.0000 -1.0000
vn 0.0000 -1.0000 0.0000
vn 0.0000 1.0000 0.0000
vn 0.9706 0.2409 0.0000
vn 0.0695 0.3278 0.9422
vn -0.9586 0.2848 0.0000
vn -0.1326 0.3667 -0.9208
vn 0.9521 0.3038 -0.0338
vn 0.1767 0.4477 0.8765
vn -0.9681 0.2499 0.0191
vn -0.1316 0.3656 -0.9214
usemtl None
s off
f 2/1/1 3/2/1 1/3/1
f 4/4/2 7/5/2 3/2/2
f 8/6/3 5/7/3 7/5/3
f 6/8/4 1/9/4 5/7/4
f 7/5/5 1/10/5 3/11/5
f 4/12/6 6/8/6 8/6/6
f 9/13/7 12/14/7 11/15/7
f 11/15/8 16/16/8 15/17/8
f 16/16/9 13/18/9 15/17/9
f 13/18/10 10/19/10 9/20/10
f 11/21/5 13/18/5 9/22/5
f 12/23/6 14/24/6 16/16/6
f 2/1/1 4/4/1 3/2/1
f 4/4/2 8/6/2 7/5/2
f 8/6/3 6/8/3 5/7/3
f 6/8/4 2/25/4 1/9/4
f 7/5/5 5/7/5 1/10/5
f 4/12/6 2/26/6 6/8/6
f 9/13/11 10/27/11 12/14/11
f 11/15/12 12/14/12 16/16/12
f 16/16/13 14/24/13 13/18/13
f 13/18/14 14/24/14 10/19/14
f 11/21/5 15/17/5 13/18/5
f 12/23/6 10/28/6 14/24/6
