# Blender v2.80 (sub 75) OBJ File: 'hitBoxPyramide.blend'
# www.blender.org
mtllib hitBoxpyramide.mtl
o pyramide_Cube.000
v 0.499590 -0.498602 0.092724
v 0.361746 -0.103121 0.212148
v 0.499590 -0.498602 0.331572
v 0.223903 -0.498602 0.331572
v 0.223903 -0.498602 0.092724
v 0.196684 -0.501124 -0.500691
v -0.151863 0.498876 -0.198719
v 0.196684 -0.501124 0.103252
v -0.500410 -0.501124 0.103252
v -0.500410 -0.501124 -0.500691
v 0.068933 -0.498482 0.116727
v -0.151863 0.134992 0.308018
v 0.068933 -0.498482 0.499309
v -0.372659 -0.498482 0.499309
v -0.372659 -0.498482 0.116727
vt 0.622129 0.013698
vt 0.847580 0.198844
vt 0.622129 0.361614
vt 0.847580 0.546760
vt 0.622129 0.709531
vt 0.250479 0.027730
vt 0.496504 0.202465
vt 0.250479 0.365551
vt 0.496504 0.540287
vt 0.250479 0.703373
vt 0.271137 0.727879
vt 0.021137 0.977879
vt 0.021137 0.727879
vt 0.622129 0.013698
vt 0.847580 0.198844
vt 0.622129 0.361614
vt 0.847580 0.546760
vt 0.622129 0.709531
vt 0.250479 0.027730
vt 0.496504 0.202465
vt 0.250479 0.365551
vt 0.496504 0.540287
vt 0.250479 0.703373
vt 0.271137 0.727879
vt 0.021137 0.977879
vt 0.021137 0.727879
vt 0.622129 0.013698
vt 0.847580 0.198844
vt 0.622129 0.361614
vt 0.847580 0.546760
vt 0.622129 0.709531
vt 0.250479 0.027730
vt 0.496504 0.202465
vt 0.250479 0.365551
vt 0.496504 0.540287
vt 0.250479 0.703373
vt 0.271137 0.727879
vt 0.021137 0.977879
vt 0.021137 0.727879
vt 0.271137 0.977879
vt 0.271137 0.977879
vt 0.271137 0.977879
vn 0.9443 0.3291 -0.0000
vn 0.0000 0.2891 0.9573
vn -0.9443 0.3291 0.0000
vn -0.0000 0.2891 -0.9573
vn -0.0000 -1.0000 -0.0000
usemtl Material.002
s 1
f 1/1/1 2/2/1 3/3/1
f 3/3/2 2/4/2 4/5/2
f 4/6/3 2/7/3 5/8/3
f 5/8/4 2/9/4 1/10/4
f 4/11/5 1/12/5 3/13/5
f 6/14/1 7/15/1 8/16/1
f 8/16/2 7/17/2 9/18/2
f 9/19/3 7/20/3 10/21/3
f 10/21/4 7/22/4 6/23/4
f 9/24/5 6/25/5 8/26/5
f 11/27/1 12/28/1 13/29/1
f 13/29/2 12/30/2 14/31/2
f 14/32/3 12/33/3 15/34/3
f 15/34/4 12/35/4 11/36/4
f 14/37/5 11/38/5 13/39/5
f 4/11/5 5/40/5 1/12/5
f 9/24/5 10/41/5 6/25/5
f 14/37/5 15/42/5 11/38/5
